<svg width="20" height="19" viewBox="0 0 20 19" fill="none" xmlns="http://www.w3.org/2000/svg">
<path d="M6.50611 7.53478V4.63044C6.50611 3.66758 6.87417 2.74417 7.52931 2.06333C8.18445 1.38249 9.07302 1 9.99953 1C10.926 1 11.8146 1.38249 12.4698 2.06333C13.1249 2.74417 13.493 3.66758 13.493 4.63044V7.53478M17.0567 4.63044H2.94329C2.77137 4.63127 2.60562 4.69715 2.47704 4.81574C2.34845 4.93434 2.26583 5.09754 2.2446 5.27484L1.00444 16.8922C0.993407 16.9935 1.003 17.096 1.03258 17.1931C1.06217 17.2902 1.11108 17.3798 1.17616 17.4559C1.24123 17.5321 1.321 17.5932 1.41028 17.6353C1.49957 17.6773 1.59637 17.6994 1.69439 17.7H18.3056C18.4036 17.6994 18.5004 17.6773 18.5897 17.6353C18.679 17.5932 18.7588 17.5321 18.8238 17.4559C18.8889 17.3798 18.9378 17.2902 18.9674 17.1931C18.997 17.096 19.0066 16.9935 18.9956 16.8922L17.7554 5.27484C17.7342 5.09754 17.6515 4.93434 17.523 4.81574C17.3944 4.69715 17.2286 4.63127 17.0567 4.63044Z" stroke="#000000" stroke-width="1.32583" stroke-linecap="round" stroke-linejoin="round"/>
</svg>
