<svg width="18" height="19" viewBox="0 0 18 19" fill="none" xmlns="http://www.w3.org/2000/svg">
<path fill-rule="evenodd" clip-rule="evenodd" d="M15.0209 14.4828C14.1154 13.0418 12.7301 11.9911 11.1412 11.4859C11.9712 10.8417 12.5147 9.84681 12.5147 8.71842C12.5147 6.78096 10.939 5.20433 9.00028 5.20433C7.06276 5.20433 5.48608 6.78096 5.48608 8.71842C5.48608 9.84681 6.02957 10.843 6.85938 11.4859C5.27068 11.9911 3.88519 13.0418 2.97988 14.4828C1.80673 13.103 1.09361 11.3197 1.09361 9.37128C1.09361 5.01069 4.64076 1.46338 9.00017 1.46338C13.3596 1.46338 16.9067 5.01043 16.9067 9.37128C16.9067 11.3197 16.1939 13.103 15.0207 14.4828H15.0209ZM6.57936 8.71847C6.57936 7.38342 7.66509 6.29778 9.00012 6.29778C10.3351 6.29778 11.4211 7.38348 11.4211 8.71847C11.4211 10.0535 10.3352 11.1394 9.00012 11.1394C7.66504 11.1394 6.57936 10.0535 6.57936 8.71847ZM9.00012 17.2767C6.98388 17.2767 5.14811 16.5123 3.7506 15.266C3.76382 15.2485 3.78558 15.2398 3.79758 15.2188C4.87576 13.3776 6.86799 12.2329 9.00014 12.2329C11.1313 12.2329 13.1247 13.3775 14.2017 15.2178C14.2137 15.2385 14.2322 15.2505 14.2464 15.2692C12.8491 16.5135 11.0143 17.2767 9 17.2767L9.00012 17.2767ZM9 0.370605C4.03805 0.370605 0 4.40864 0 9.37191C0 14.3337 4.03815 18.3706 9 18.3706C13.9622 18.3706 18 14.3338 18 9.37191C18 4.4089 13.9621 0.370605 9 0.370605" fill="#000000"/>
</svg>
