<svg width="23" height="23" viewBox="0 0 23 23" fill="none" xmlns="http://www.w3.org/2000/svg">
<g clip-path="url(#clip0_594_824)">
<path d="M11.5 23C17.8513 23 23 17.8513 23 11.5C23 5.14872 17.8513 0 11.5 0C5.14873 0 0 5.14872 0 11.5C0 17.8513 5.14873 23 11.5 23Z" fill="#212727"/>
<path d="M14.2082 6.08324C14.9259 6.08538 15.6136 6.37143 16.1211 6.87891C16.6286 7.3864 16.9146 8.07408 16.9168 8.79176V14.2082C16.9146 14.9259 16.6286 15.6136 16.1211 16.1211C15.6136 16.6286 14.9259 16.9146 14.2082 16.9168H8.79176C8.07408 16.9146 7.3864 16.6286 6.87891 16.1211C6.37143 15.6136 6.08538 14.9259 6.08324 14.2082V8.79176C6.08538 8.07408 6.37143 7.3864 6.87891 6.87891C7.3864 6.37143 8.07408 6.08538 8.79176 6.08324H14.2082ZM14.2082 5H8.79176C6.70625 5 5 6.70625 5 8.79176V14.2082C5 16.2937 6.70625 18 8.79176 18H14.2082C16.2937 18 18 16.2937 18 14.2082V8.79176C18 6.70625 16.2937 5 14.2082 5Z" fill="white"/>
<path d="M15.0208 8.79168C14.8601 8.79168 14.703 8.74403 14.5694 8.65475C14.4357 8.56547 14.3316 8.43858 14.2701 8.29011C14.2086 8.14165 14.1925 7.97828 14.2239 7.82067C14.2552 7.66306 14.3326 7.51829 14.4462 7.40466C14.5599 7.29103 14.7046 7.21364 14.8623 7.18229C15.0199 7.15094 15.1832 7.16703 15.3317 7.22853C15.4802 7.29003 15.6071 7.39417 15.6963 7.52778C15.7856 7.6614 15.8333 7.81848 15.8333 7.97918C15.8335 8.08595 15.8126 8.1917 15.7719 8.29038C15.7311 8.38906 15.6713 8.47873 15.5958 8.55422C15.5203 8.62971 15.4306 8.68955 15.332 8.7303C15.2333 8.77105 15.1275 8.79191 15.0208 8.79168ZM11.5 9.33316C11.9286 9.33316 12.3475 9.46023 12.7038 9.69832C13.0601 9.93641 13.3379 10.2748 13.5019 10.6707C13.6659 11.0667 13.7088 11.5023 13.6252 11.9226C13.5415 12.3429 13.3352 12.729 13.0322 13.0321C12.7291 13.3351 12.343 13.5414 11.9227 13.625C11.5024 13.7087 11.0668 13.6657 10.6708 13.5017C10.2749 13.3378 9.93651 13.06 9.69843 12.7037C9.46034 12.3474 9.33326 11.9285 9.33326 11.4999C9.33388 10.9254 9.56236 10.3747 9.96857 9.96846C10.3748 9.56225 10.9256 9.33377 11.5 9.33316ZM11.5 8.24992C10.8572 8.24992 10.2289 8.44053 9.69442 8.79764C9.15996 9.15476 8.7434 9.66234 8.49742 10.2562C8.25143 10.8501 8.18707 11.5035 8.31247 12.134C8.43787 12.7644 8.74741 13.3435 9.20193 13.798C9.65645 14.2525 10.2355 14.5621 10.866 14.6875C11.4964 14.8129 12.1499 14.7485 12.7437 14.5025C13.3376 14.2565 13.8452 13.84 14.2023 13.3055C14.5594 12.7711 14.75 12.1427 14.75 11.4999C14.75 10.638 14.4076 9.81132 13.7981 9.20182C13.1886 8.59233 12.362 8.24992 11.5 8.24992Z" fill="white"/>
</g>
<defs>
<clipPath id="clip0_594_824">
<rect width="23" height="23" fill="white"/>
</clipPath>
</defs>
</svg>
